<?xml version="1.0" encoding="utf-8"?>
<!-- Designed by Vexels.com - 2017 All Rights Reserved - https://vexels.com/terms-and-conditions/  -->

<svg version="1.1" id="Layer_1" xmlns="http://www.w3.org/2000/svg" xmlns:xlink="http://www.w3.org/1999/xlink" x="0px" y="0px"
	 width="1200px" height="1200px" viewBox="0 0 1200 1200" enable-background="new 0 0 1200 1200" xml:space="preserve">
<path fill="#282727" d="M66.117,585.246c0,0-36.625-42.504,24.07-50.722c0,0,31.74-20.339,63.959-36.244
	c32.218-15.906,90.432-39.028,112.162-52.939c21.731-13.901,36.129-33.725,75.972-45.092
	c39.835-11.357,212.666-26.571,278.602-6.357c65.945,20.215,54.517,13.406,54.517,13.406s9.425-62.576,26.004-66.105
	c16.578-3.546,6.082-1.542,6.082-1.542s49.064,25.126,79.048,25.96c29.967,0.842,68.073,23.566,79.846,41.953
	c11.765,18.37,34.985,115.398,37.929,134.718c2.943,19.319,13.635,36.031,21.863,37.83c8.227,1.809,46.59,10.232,73.932-9.628
	c0,0,91.008-54.703,130.284-50.394c39.258,4.301,7.447-1.241,7.447-1.241s5.976,18.548,8.148,34.825
	c2.172,16.278,9.229,36.501-5.905,66.211c-15.152,29.71-18.92,40.376-24.204,57.895c-5.276,17.51-13.166,27.271-13.095,53.133
	c0.062,25.871-25.764,38.868-23.725,62.301c2.039,23.433-3.582,29.381-14.699,21.19c-11.136-8.183-88.517-94.12-94.36-119.814
	c-5.86-25.702-23.964-28.246-59.268-24.505c-35.286,3.759-6.472,22.998-24.789,60.634s-32.724,57.451-53.55,67.248
	c-20.817,9.789-65.537,17.209-79.341,34.294c-13.804,17.084-32.351,23.069-41.342,18.219c-8.99-4.85-23.69-42.547-23.69-42.547
	l-14.141,5.514c0,0-3.608,16.438,8.29,27.679c0,0-17.555-18.228-30.356-25.339c-12.803-7.11-10.187,0.638-20.994,4.007
	c-10.781,3.387-45.571,24.471-58.213,23.132c0,0,10.4,18.087-9.691,17.988c-20.081-0.106-130.311-21.428-170.518-34.559
	c-40.207-13.14-117.916-51.732-151.145-70.519c-33.212-18.777-106.674-63.631-125.133-77.736
	c-18.44-14.096-28.778-6.312-36.864-15.267c-8.086-8.955-23.229-38.141-23.096-45.287C56.151,617.544,37.072,593.234,66.117,585.246
	z"/>
</svg>
