<?xml version="1.0" standalone="no"?>
<!DOCTYPE svg PUBLIC "-//W3C//DTD SVG 20010904//EN" "http://www.w3.org/TR/2001/REC-SVG-20010904/DTD/svg10.dtd">
<svg xmlns="http://www.w3.org/2000/svg" version="1.0" width="1920.000000pt" height="1223.000000pt" viewBox="0 0 1920.000000 1223.000000" preserveAspectRatio="xMidYMid meet">
<metadata>
Silhouette image created by Creazilla.com with potrace 1.16, written by Peter Selinger 2001-2019
</metadata>
<g transform="translate(0.000000,1223.000000) scale(0.100000,-0.100000)" fill="#4EDD69">
<path d="M9466 12215 c-72 -25 -145 -86 -333 -279 -326 -332 -603 -687 -971 -1241 -198 -299 -590 -933 -710 -1150 -18 -31 -14 -5 18 143 74 335 179 664 405 1272 217 584 375 1060 375 1131 0 63 -87 107 -147 75 -143 -73 -386 -464 -671 -1076 -256 -549 -544 -1257 -697 -1714 l-54 -158 -35 111 c-118 375 -186 945 -174 1466 8 301 -12 404 -85 445 -25 14 -30 13 -64 -5 -51 -28 -99 -94 -123 -171 -24 -80 -36 -224 -51 -654 -16 -448 -1 -1431 26 -1735 l5 -60 -25 30 c-94 111 -231 336 -371 609 l-112 220 -9 -50 c-4 -27 -8 -116 -7 -199 0 -129 4 -166 27 -260 52 -206 134 -380 283 -602 46 -68 79 -123 74 -123 -11 0 -41 -46 -177 -271 -134 -221 -248 -424 -560 -1003 -145 -268 -307 -565 -360 -660 -499 -890 -957 -1505 -1403 -1886 -362 -309 -955 -553 -1700 -699 -374 -74 -607 -98 -1000 -106 -168 -3 -381 -10 -475 -16 -93 -6 -212 -10 -263 -8 l-92 4 0 -166 0 -165 96 -18 c112 -21 109 -30 -16 -48 l-80 -12 2 -161 3 -160 40 1 c22 0 301 4 620 9 1079 14 1701 -33 2380 -181 306 -67 498 -123 1040 -308 1102 -377 2136 -667 2935 -825 434 -86 867 -148 1095 -158 124 -5 131 -4 158 17 25 20 28 29 25 66 l-3 43 30 -28 c256 -235 563 -491 833 -695 508 -383 1018 -664 1413 -779 224 -65 148 -2 -361 293 -248 145 -404 242 -416 261 -11 19 6 23 44 12 20 -6 100 -34 177 -63 345 -129 924 -324 1036 -349 21 -5 39 -6 39 -2 0 4 -71 40 -157 81 -217 101 -633 310 -718 361 -79 47 -127 88 -119 101 19 31 371 -65 984 -267 206 -68 376 -123 377 -121 7 7 -118 183 -172 243 -120 133 -356 309 -610 454 -128 73 -454 233 -640 314 l-130 57 330 -6 c966 -17 1846 -143 2804 -402 209 -57 618 -180 775 -233 49 -17 91 -29 93 -28 1 2 -83 120 -188 263 -105 142 -200 271 -211 286 l-19 28 63 -6 c225 -20 584 -64 978 -119 250 -35 538 -74 640 -85 195 -23 492 -31 592 -17 l56 8 7 52 c3 29 8 70 11 93 l6 41 116 7 c450 26 795 101 1070 231 368 175 582 458 582 769 0 160 -35 282 -194 678 -231 576 -401 913 -576 1143 -60 79 -143 166 -260 271 -19 18 -64 64 -99 104 -36 40 -83 83 -105 97 -23 14 -43 27 -45 29 -7 6 41 53 92 91 32 24 51 32 56 25 9 -15 597 -304 889 -436 435 -198 1092 -470 1322 -547 96 -32 163 -37 213 -15 108 45 233 304 267 553 18 129 8 448 -20 628 -40 265 -76 428 -110 494 -197 392 -255 762 -170 1092 42 163 51 902 15 1273 -45 468 -137 696 -281 696 -63 0 -135 -45 -266 -166 -68 -62 -244 -216 -393 -342 -903 -766 -1321 -1190 -1707 -1732 -78 -109 -97 -131 -123 -135 -125 -20 -274 -46 -293 -51 -23 -7 -23 -6 -15 42 12 71 8 621 -6 814 -34 484 -88 873 -172 1252 -271 1217 -826 1968 -1549 2094 -149 26 -370 15 -521 -24 -64 -17 -158 -49 -210 -71 l-94 -41 -23 23 -23 23 100 83 c167 137 262 252 245 295 -10 26 -72 37 -144 25 -333 -53 -1088 -371 -1357 -571 -55 -40 -65 -40 -37 2 59 88 172 178 514 410 364 247 441 303 483 349 75 83 56 147 -50 171 -58 13 -130 -6 -223 -59 -805 -463 -1900 -1088 -1900 -1085 0 2 78 70 173 151 356 307 717 603 1069 876 198 154 270 227 318 323 45 88 48 155 7 190 -71 61 -196 18 -520 -178 -293 -177 -533 -342 -1227 -844 -374 -271 -381 -275 -364 -253 215 286 586 686 1045 1126 165 158 316 308 335 334 88 120 120 253 73 300 -27 27 -83 22 -161 -13 -174 -80 -1683 -1300 -2215 -1792 -18 -16 -33 -27 -33 -23 0 22 508 680 1074 1392 171 215 325 415 344 445 66 110 76 201 27 257 -22 26 -29 28 -97 28 -63 -1 -82 -6 -138 -34 -81 -42 -119 -71 -283 -217 -264 -233 -628 -589 -1050 -1024 -237 -245 -511 -526 -609 -625 l-179 -180 56 120 c210 451 605 1115 971 1631 129 183 165 255 172 344 4 66 3 70 -26 99 -35 35 -79 40 -146 16z"/>
</g>
</svg>
